<?xml version="1.0" standalone="no"?><!DOCTYPE svg PUBLIC "-//W3C//DTD SVG 1.1//EN" "http://www.w3.org/Graphics/SVG/1.1/DTD/svg11.dtd"><svg t="1593955374339" class="icon" viewBox="0 0 1024 1024" version="1.1" xmlns="http://www.w3.org/2000/svg" p-id="841" xmlns:xlink="http://www.w3.org/1999/xlink" width="80" height="80"><defs><style type="text/css"></style></defs><path d="M768 896H256a128 128 0 0 1-128-128V256a128 128 0 0 1 128-128h512a128 128 0 0 1 128 128v512a128 128 0 0 1-128 128zM256 213.333333a42.666667 42.666667 0 0 0-42.666667 42.666667v512a42.666667 42.666667 0 0 0 42.666667 42.666667h512a42.666667 42.666667 0 0 0 42.666667-42.666667V256a42.666667 42.666667 0 0 0-42.666667-42.666667z" fill="#d81e06" p-id="842"></path><path d="M512 384h170.666667v426.666667h-170.666667z" fill="#d81e06" p-id="843"></path></svg>